<svg width="32" height="26" viewBox="0 0 32 26" fill="none" xmlns="http://www.w3.org/2000/svg">
<path d="M6.906 1.334C6.77248 1.19776 6.61342 1.08917 6.43791 1.01443C6.26241 0.93969 6.07389 0.900264 5.88315 0.898407C5.6924 0.89655 5.50315 0.932297 5.32622 1.00361C5.14929 1.07491 4.98815 1.18039 4.852 1.314C3.3119 2.84516 2.09023 4.66612 1.25746 6.67182C0.424697 8.67753 -0.00267538 10.8283 1.04934e-06 13C-0.00249686 15.255 0.458509 17.4865 1.35441 19.556C2.2503 21.6254 3.56197 23.4886 5.208 25.03C5.48504 25.2861 5.85099 25.4241 6.22814 25.4148C6.6053 25.4055 6.96397 25.2495 7.228 24.98C7.86 24.348 7.782 23.342 7.174 22.76C5.853 21.5011 4.80178 19.9867 4.08424 18.3088C3.36669 16.631 2.99781 14.8248 3 13C3 9.308 4.482 5.96 6.886 3.524C7.466 2.934 7.526 1.954 6.906 1.334V1.334ZM10.428 4.86C10.1646 4.58897 9.8045 4.43342 9.42661 4.42742C9.04873 4.42142 8.68387 4.56547 8.412 4.828C7.3299 5.89591 6.47098 7.16835 5.88522 8.5713C5.29945 9.97425 4.99855 11.4797 5 13C4.99765 14.6075 5.33352 16.1975 5.98578 17.6668C6.63805 19.136 7.59212 20.4516 8.786 21.528C9.0605 21.7705 9.41778 21.8981 9.78381 21.8843C10.1498 21.8706 10.4965 21.7165 10.752 21.454C11.408 20.798 11.286 19.766 10.67 19.186C9.82562 18.3923 9.15301 17.4338 8.69377 16.3698C8.23453 15.3058 7.99841 14.1589 8 13C8 10.7 8.914 8.612 10.4 7.08C10.972 6.492 11.066 5.494 10.428 4.858V4.86ZM21.572 4.86C21.8354 4.58897 22.1955 4.43342 22.5734 4.42742C22.9513 4.42142 23.3161 4.56547 23.588 4.828C24.6701 5.89591 25.529 7.16835 26.1148 8.5713C26.7005 9.97425 27.0015 11.4797 27 13C27.0024 14.6075 26.6665 16.1975 26.0142 17.6668C25.362 19.136 24.4079 20.4516 23.214 21.528C22.9395 21.7705 22.5822 21.8981 22.2162 21.8843C21.8502 21.8706 21.5035 21.7165 21.248 21.454C20.592 20.798 20.714 19.766 21.33 19.186C22.1744 18.3923 22.847 17.4338 23.3062 16.3698C23.7655 15.3058 24.0016 14.1589 24 13C24 10.7 23.086 8.612 21.6 7.08C21.028 6.492 20.934 5.494 21.572 4.858V4.86ZM25.094 1.336C25.2275 1.19976 25.3866 1.09117 25.5621 1.01643C25.7376 0.94169 25.9261 0.902265 26.1169 0.900407C26.3076 0.89855 26.4969 0.934297 26.6738 1.00561C26.8507 1.07691 27.0119 1.18239 27.148 1.316C28.6879 2.84692 29.9094 4.66755 30.7422 6.6729C31.5749 8.67825 32.0024 10.8286 32 13C32.0025 15.255 31.5415 17.4865 30.6456 19.556C29.7497 21.6254 28.438 23.4886 26.792 25.03C26.515 25.2861 26.149 25.4241 25.7719 25.4148C25.3947 25.4055 25.036 25.2495 24.772 24.98C24.14 24.348 24.218 23.342 24.828 22.76C26.1486 21.5009 27.1995 19.9864 27.9167 18.3086C28.6339 16.6308 29.0025 14.8247 29 13C29 9.308 27.518 5.96 25.114 3.524C24.534 2.934 24.474 1.954 25.094 1.334V1.336ZM16 10C15.2044 10 14.4413 10.3161 13.8787 10.8787C13.3161 11.4413 13 12.2043 13 13C13 13.7956 13.3161 14.5587 13.8787 15.1213C14.4413 15.6839 15.2044 16 16 16C16.7957 16 17.5587 15.6839 18.1213 15.1213C18.6839 14.5587 19 13.7956 19 13C19 12.2043 18.6839 11.4413 18.1213 10.8787C17.5587 10.3161 16.7957 10 16 10Z" fill="black"/>
</svg>
