<svg width="212" height="237" viewBox="0 0 212 237" fill="none" xmlns="http://www.w3.org/2000/svg">
<path fill-rule="evenodd" clip-rule="evenodd" d="M206.497 130.325C203.48 130.621 200.463 130.917 197.447 131.213C182.998 132.318 168.556 134.624 154.218 136.008C153.861 135.427 153.163 135.522 152.738 135.926C151.308 135.801 149.704 134.707 148.408 135.845C148.366 135.839 148.324 135.832 148.282 135.828C145.974 131.398 144.379 126.672 142.831 121.94C141.843 119.031 140.514 116.215 138.057 114.261C133.865 111.35 124.259 105.446 119.336 105.694C119.254 104.813 118.844 103.904 118.169 103.317C119.656 100.781 113.71 99.126 113.291 99.42C113.56 90.947 109.576 83.589 100.791 81.902C92.922 80.262 81.728 79.986 77.496 88.214C77.03 88.161 72.274 88.137 71.814 88.188C71.099 87.282 63.2419 95.871 66.462 98.862C37.6722 111.602 21.3021 110.082 13.3335 145.9C12.2562 149.264 12.1778 152.946 11.0402 156.236C6.99312 165.69 3.71052 175.757 2.89362 186.043C0.92042 186.549 0.69352 190.03 2.97902 190.533C3.85202 190.725 4.58202 190.988 5.21862 191.487C4.72102 199.917 6.75902 219.174 8.04312 219.114C10.6615 227.451 22.3407 229.803 30.6092 226.874C29.1838 229.557 30.6092 231.243 30.6092 232.677C60.3614 233.803 92.892 233.154 122.636 234.699C126.441 234.644 130.443 235.633 134.196 235.064C136.484 234.515 136.488 230.915 134.167 230.47L144.31 228.266C144.083 228.181 148.491 225.248 151.823 219.767C154.924 213.635 152.813 206.234 154.218 199.565C165.193 198.667 176.348 198.283 187.202 196.424C188.682 200.854 195.089 195.556 197.125 193.425C197.122 193.422 197.12 193.419 197.117 193.415C198.103 193.145 198.893 192.221 198.92 191.127C199.611 190.14 199.756 188.747 199.093 187.793C202.131 170.257 206.762 152.353 208.436 134.653C209.027 134.522 209.585 134.263 210.057 133.863L210.019 133.824C210.819 132.932 210.975 131.391 209.64 130.632C208.564 130.02 207.665 130.21 206.497 130.325Z" fill="white"/>
<path fill-rule="evenodd" clip-rule="evenodd" d="M78.044 86.303C78.941 84.049 81.971 84.925 81.633 87.293C81.431 88.711 80.654 90.209 79.957 91.452C79.389 92.464 78.741 93.451 77.863 94.209C79.427 95.669 81.049 97.074 82.713 98.409C84.529 99.866 86.438 101.208 88.412 102.442C90.142 103.524 91.951 104.483 93.582 105.718C95.099 106.865 96.48 108.246 97.183 110.048C97.932 111.967 97.607 113.949 97.055 115.867L96.992 116.084C96.429 117.984 95.453 120.274 96.806 122.064C97.494 122.976 98.495 123.621 99.359 124.35C100.128 124.997 100.849 125.702 101.51 126.458C102.952 128.107 104.125 129.962 104.865 132.03L104.931 132.218C105.565 134.048 106.029 136.29 105.172 138.087C104.926 138.602 104.133 138.434 103.995 137.933C103.683 136.797 103.7 135.607 103.439 134.454C103.167 133.256 102.715 132.119 102.124 131.042C100.982 128.96 99.434 127.182 97.606 125.679L97.059 125.233C95.633 124.063 94.323 122.821 94.033 120.883C93.724 118.81 94.554 116.835 95.088 114.873C95.46 113.505 95.581 112.194 95.179 110.959C94.688 111.761 94.018 112.522 93.488 113.201C92.432 114.554 91.367 115.899 90.304 117.246C89.214 118.627 88.151 120.03 87.139 121.47C86.686 122.114 86.238 122.762 85.792 123.41C85.456 123.897 84.988 124.384 84.622 124.881C84.711 125.147 84.704 125.454 84.543 125.671C82.603 128.294 79.842 122.822 79.122 121.439C77.656 118.623 76.564 115.632 75.093 112.816C73.569 109.898 71.833 107.058 69.899 104.393C68.729 102.782 67.417 101.268 66.347 99.605C63.8246 101.893 60.506 103.427 57.4579 104.817C54.1088 106.345 50.6294 107.593 47.1956 108.918L46.1813 109.313C40.2648 111.622 34.2037 114.16 29.286 118.263C23.5072 123.085 20.0884 129.805 17.5433 136.764C14.6134 144.775 12.1896 153.002 9.93011 161.225C8.77381 165.431 7.67671 169.657 6.64531 173.897C5.73641 177.632 4.98301 181.404 3.93091 185.101C6.06471 185.025 8.49831 185.851 10.3201 186.09C18.6227 187.177 26.8135 188.91 34.6522 191.911C35.6204 192.282 35.9005 193.249 35.6897 194.033C36.2481 193.875 36.806 193.716 37.3644 193.559C36.7527 192.621 37.0446 190.945 37.0927 189.905L37.0957 189.834C37.1451 188.449 37.2953 187.062 37.3927 185.68C37.5782 183.045 37.8196 180.429 38.1407 177.808L38.2226 177.153C38.5864 174.302 38.8553 171.435 39.2523 168.589L39.2992 168.264C39.1089 167.535 38.8872 166.816 38.6546 166.1C38.0348 164.193 37.1599 162.397 36.3932 160.55C36.3028 160.332 36.6125 160.208 36.7572 160.338C38.0557 161.506 39.0871 162.989 39.9157 164.539C39.93 164.466 39.9427 164.393 39.9577 164.32L40.0523 163.854C40.2854 162.719 40.569 161.524 41.2653 160.603C41.3394 160.506 41.486 160.485 41.5562 160.603C42.2225 161.731 42.2971 163.16 42.3996 164.443C42.5155 165.895 42.5301 167.366 42.5096 168.822C42.4697 171.667 42.2692 174.521 42.1095 177.361C41.9528 180.153 41.6451 182.909 41.2485 185.673L41.1731 186.192C40.9793 187.507 40.8206 188.839 40.5649 190.146L40.4927 190.502C40.356 191.15 40.2719 192.063 39.9998 192.822C47.0008 190.869 54.0125 188.96 61.0376 187.085C66.115 185.729 71.198 184.394 76.278 183.05C76.546 182.566 76.88 182.115 77.297 181.712C78.669 180.382 80.488 179.788 82.157 180.812C82.292 180.896 82.304 181.108 82.157 181.189C81.837 181.363 81.517 181.543 81.202 181.73L84.253 180.903C86.533 180.285 88.841 179.512 91.174 179.081C95.473 176.959 100.097 175.423 104.625 173.905L105.158 173.724C107.477 172.934 109.875 172.048 112.271 171.61C114.025 171.289 116.083 171.676 116.788 173.474C117.681 174.062 118.521 174.754 119.332 175.434C119.918 175.926 120.48 176.449 121.051 176.957L121.156 177.05C121.623 177.455 121.993 177.727 122.108 178.372C122.167 178.705 121.955 179.156 121.544 179.112C120.287 178.977 119.265 177.519 118.412 176.649C117.753 175.976 117.089 175.28 116.488 174.54C116.138 174.731 115.657 174.697 115.434 174.274C114.277 172.083 111.108 173.601 109.354 174.121L106.843 174.865C105.587 175.237 104.331 175.612 103.078 175.992C99.633 177.039 96.206 178.21 92.73 179.171C93.041 179.513 92.998 180.121 92.407 180.353C89.687 181.421 86.702 181.973 83.875 182.706C82.091 183.169 80.307 183.634 78.524 184.103C78.219 184.598 77.999 185.159 77.906 185.811C77.566 188.21 78.222 190.978 78.861 193.298L78.958 193.645C79.483 195.51 80.256 197.797 81.865 198.975C82.258 199.262 82.758 199.462 83.262 199.507C86.411 197.885 89.56 196.264 92.711 194.645C93.295 194.345 93.835 194.751 93.966 195.234C95.077 195.052 96.185 194.764 97.195 194.422C98.891 193.845 100.216 192.746 101.806 191.986C104.884 190.515 108.026 192.322 110.781 193.695L111.417 194.007C112.652 194.607 115.223 195.759 115.815 194.119C116.389 192.532 114.576 190.836 113.405 190.122C112.009 189.27 110.384 188.815 108.807 188.435C107.906 188.218 106.995 188.041 106.078 187.912C105.037 187.766 103.963 187.788 102.961 187.45C102.464 187.283 102.387 186.492 102.961 186.361C104.503 186.01 106.343 186.393 107.952 186.784L108.793 186.992C110.414 187.39 112.051 187.889 113.528 188.683C114.601 189.26 115.735 190.137 116.475 191.211C117.118 190.614 117.918 190.634 118.751 190.855L119.204 190.981C119.951 191.188 120.556 191.331 121.283 191.187C121.38 190.658 121.479 190.129 121.584 189.6C122.62 184.398 123.756 179.216 125.009 174.061C127.171 165.17 129.673 156.376 132.494 147.673L132.777 146.803C133.427 144.812 133.951 142.643 135 140.815C135.992 139.085 137.581 138.089 139.469 137.562C141.611 136.963 143.863 136.65 146.049 136.246C146.536 136.156 147.025 136.07 147.513 135.981C147.101 135.237 146.793 134.391 146.516 133.742L146.467 133.63C145.871 132.271 145.336 130.888 144.819 129.497L144.433 128.452C143.5 125.934 142.537 123.458 141.225 121.104C139.844 118.626 138.012 116.6 135.728 114.924C131.073 111.505 125.461 109.761 120.945 106.107C120.76 105.958 120.997 105.702 121.185 105.796C124.234 107.329 127.526 108.371 130.697 109.619L131.323 109.866C133.83 110.86 136.376 111.942 138.545 113.552C140.964 115.347 142.87 117.576 144.302 120.226C145.713 122.839 146.616 125.763 147.611 128.554L147.878 129.298C148.279 130.413 148.694 131.524 149.169 132.609C149.547 133.471 150.251 134.454 150.571 135.438C151.447 135.286 152.322 135.134 153.199 134.988C172.185 131.816 191.383 129.953 210.624 129.408C211.376 129.387 211.766 130.105 211.655 130.762C209.808 141.685 208.167 152.645 206.367 163.576C205.581 168.347 204.779 173.114 203.959 177.879C203.543 180.293 203.063 182.698 202.669 185.116C202.352 187.068 202.121 189.036 201.576 190.943C201.086 192.653 200.335 194.302 199.102 195.607C197.773 197.013 195.918 197.694 194.05 198.015C189.309 198.832 184.446 199.165 179.666 199.709L154.22 202.605C154.592 205.986 154.62 209.315 154.449 212.735L154.352 214.603C154.272 216.105 154.177 217.609 153.962 219.096C153.691 220.96 152.838 222.539 151.582 223.932C150.429 225.211 149.028 226.303 147.665 227.348C146.25 228.434 144.789 229.482 143.125 230.154L142.91 230.24C141.45 230.81 138.713 231.692 136.719 231.37C136.979 232.676 137.484 234.081 137.036 235.374C136.829 235.975 136.044 236.274 135.563 235.764C134.611 234.751 134.536 233.414 134.311 232.093C134.076 230.718 133.874 229.339 133.694 227.956C133.346 225.282 133.075 222.584 132.993 219.887C132.908 217.118 132.941 214.345 133.09 211.579C133.166 210.158 133.262 208.739 133.442 207.327C133.519 206.726 133.597 206.123 133.687 205.523C133.72 205.304 133.756 205.086 133.795 204.868L131.511 205.126C128.009 205.517 124.505 205.87 120.978 205.925C120.561 205.932 120.239 205.741 120.029 205.464C119.806 205.829 119.416 206.09 118.858 206.088C113.933 206.069 109.346 204.458 104.867 202.559C102.608 201.602 100.386 200.565 98.124 199.616C96.013 198.73 93.757 198.098 91.697 197.1L86.284 199.94C86.245 200.08 86.194 200.212 86.14 200.323C85.787 201.042 85.092 201.433 84.383 201.727C83.702 202.009 82.996 202.097 82.309 202.026C78.204 204.178 74.098 206.328 69.989 208.473L65.88 210.616C57.6917 214.881 49.5362 219.215 41.2967 223.38L40.6902 223.686C37.8442 225.113 34.7883 226.56 31.63 227.64C31.5738 228.44 31.6093 229.218 31.6762 230.064L31.6924 230.248C31.7865 231.249 31.9884 232.502 31.1863 233.214C30.7691 233.585 30.0237 233.586 29.74 233.028C29.2251 232.015 29.6874 230.419 29.8505 229.319C29.9084 228.927 29.9789 228.525 30.0833 228.135C26.4626 229.213 22.7322 229.736 19.0477 229.131C15.4604 228.542 12.682 226.281 10.4422 223.516C8.07831 220.597 6.39851 217.197 5.49721 213.551C4.47151 209.403 4.40461 205.119 4.42861 200.869C4.45421 196.345 4.62151 191.797 5.17171 187.303C4.56891 187.161 3.90051 187.039 3.29141 187.081C2.98971 187.564 2.40451 187.767 1.87571 187.704C0.725813 188.973 3.64251 190.27 4.57461 190.594C4.89831 190.707 4.86361 191.233 4.49031 191.217L4.25521 191.206C2.81491 191.129 1.32691 190.883 0.48011 189.544C-0.19849 188.471 0.00531191 187.2 0.814312 186.324C1.34861 181.271 2.62591 176.349 3.81471 171.419C4.98131 166.581 6.27871 161.773 7.65391 156.989L8.27031 154.848C10.4355 147.348 12.6986 139.787 15.6852 132.584C17.1765 128.988 18.8946 125.458 21.2234 122.322C23.3941 119.399 25.957 116.897 28.9029 114.761C34.3948 110.778 40.839 108.371 47.1707 106.078L47.4541 105.976C50.7353 104.789 54.0085 103.587 57.2523 102.3C60.1211 101.163 62.8695 99.72 65.725 98.566C65.632 98.397 65.542 98.227 65.456 98.054L65.403 98.099C65.394 98.106 65.385 98.113 65.376 98.12C65.088 98.319 64.6657 98.221 64.4291 97.997C63.7609 97.367 63.9871 96.667 64.4331 96.013L64.4912 95.929C65.037 95.165 65.523 94.357 66.027 93.565L66.342 93.069C67.187 91.746 68.075 90.414 69.202 89.32C69.724 88.813 70.295 88.434 70.9 88.151C70.848 88.042 71.302 87.818 71.431 87.931C73.349 87.228 75.555 87.376 77.646 87.569L78.044 86.303ZM152.989 202.745L150.322 203.048C147.389 203.382 144.455 203.705 141.52 204.025L135.146 204.718C135.129 205.081 135.085 205.437 135.077 205.711C135.036 207.126 135.005 208.543 134.975 209.958C134.916 212.796 134.981 215.637 135.168 218.47C135.349 221.214 135.587 223.959 135.958 226.685L136.033 227.23L136.077 227.517C136.38 227.546 136.677 227.69 136.924 227.985C137.463 228.629 139.415 228.003 140.178 227.732C141.432 227.285 142.612 226.531 143.702 225.775C144.766 225.037 145.724 224.176 146.645 223.269L147.398 222.523C148.147 221.778 148.897 220.985 149.356 220.048C149.979 218.777 150.059 217.217 150.242 215.833C150.467 214.131 150.734 212.429 151.017 210.735L152.989 202.745ZM75.59 184.877L75.313 184.949C65.267 187.62 55.236 190.369 45.1592 192.922C40.1725 194.185 35.162 195.357 30.1691 196.596L29.3608 196.798C25.4219 197.794 21.4358 198.992 18.4195 201.851C18.3082 201.956 18.1465 201.794 18.2513 201.682C21.5021 198.22 26.1255 196.755 30.5646 195.484C31.3852 195.25 32.2068 195.02 33.0276 194.787C26.9904 192.634 20.8579 190.761 14.5839 189.425C12.9684 189.081 11.334 188.828 9.71971 188.483C8.59391 188.242 7.49441 187.893 6.38051 187.604L5.50431 187.384L5.49261 190.154C5.47811 194.078 5.48501 197.998 5.68511 201.922L5.72301 202.648C5.95651 207.014 6.32091 211.471 7.86961 215.587C9.12821 218.933 11.1341 222.084 13.7575 224.521C15.0848 225.754 16.512 226.713 18.276 227.187C19.914 227.627 21.6301 227.679 23.3139 227.561C31.3905 226.998 38.5799 222.609 45.5957 218.975C57.0711 213.031 68.548 207.09 80.035 201.169C79.724 200.957 79.432 200.712 79.166 200.437C77.626 198.845 76.813 196.667 76.279 194.557C75.711 192.311 75.372 189.904 75.332 187.585L75.59 184.877ZM90.206 203.463C90.307 203.409 90.425 203.477 90.429 203.592C90.465 204.469 89.98 205.335 89.618 206.126L89.58 206.21C89.139 207.189 88.658 208.156 88.159 209.107C87.163 211.007 86.128 212.887 85.047 214.74C82.875 218.469 80.46 222.04 77.607 225.287C76.962 226.02 75.902 225.08 76.316 224.29C78.31 220.484 80.635 216.89 83.028 213.327C84.226 211.543 85.423 209.758 86.633 207.982C87.138 207.241 87.649 206.503 88.174 205.775L88.491 205.341L90.206 203.463ZM209.351 131.588C199.27 131.893 189.201 132.55 179.168 133.581C169.837 134.54 160.54 135.816 151.296 137.406C149.365 137.738 147.437 138.084 145.511 138.444L144.355 138.661C142.429 139.026 140.076 139.177 138.361 140.206C136.553 141.292 136.064 143.56 135.462 145.43C134.755 147.63 134.065 149.836 133.395 152.047C130.731 160.828 128.298 169.684 126.127 178.599C125.05 183.024 124.094 187.473 123.087 191.914C122.192 195.86 121.204 199.762 120.173 203.668C120.3 203.569 120.456 203.494 120.644 203.454C125.767 202.364 130.996 201.89 136.195 201.287L136.698 201.228C142.077 200.596 147.456 199.968 152.837 199.362L188.47 195.354C190.571 195.117 192.822 195.085 194.867 194.521C198.344 193.562 199.159 189.673 199.743 186.576L199.76 186.482C201.519 177.125 202.919 167.687 204.56 158.306L209.351 131.588ZM121.002 192.791C119.618 192.699 117.725 191.432 116.675 191.523C117.226 192.448 117.475 193.503 117.157 194.629C116.274 197.764 112.277 196.142 110.352 195.184C108.774 194.399 107.25 193.437 105.502 193.069C103.523 192.653 102.182 193.441 100.509 194.348C99.136 195.094 97.64 195.629 96.101 195.906C95.283 196.054 94.506 196.069 93.73 196.012C93.684 196.05 93.631 196.085 93.571 196.117L93.161 196.332C95.016 196.417 96.906 196.99 98.632 197.514C100.421 198.057 102.177 198.712 103.924 199.382L105.643 200.042C109.882 201.666 114.27 203.209 118.858 203.195C119.188 203.194 119.458 203.285 119.671 203.434L121.002 192.791ZM113.262 182.968C114.628 182.801 115.89 182.98 116.982 183.87C118.299 184.944 119.184 186.724 121.077 186.841C121.629 186.875 121.758 187.651 121.209 187.813C119.799 188.231 118.658 187.468 117.698 186.478L117.053 185.803C116.104 184.82 115.229 184.06 113.618 184.119C111.894 184.182 110.167 184.58 108.454 184.783C106.513 185.013 104.573 185.208 102.626 185.377C102.535 185.385 102.52 185.243 102.605 185.222L104.785 184.679L113.262 182.968ZM111.943 177.379L112.168 177.357C114.153 177.164 115.968 177.156 117.74 178.224L118.08 178.43C119.678 179.402 121.418 180.546 122.417 182.119C122.58 182.377 122.31 182.68 122.037 182.614C120.116 182.153 118.712 180.744 117.097 179.689C115.284 178.505 113.412 178.7 111.345 178.884C109.344 179.062 107.344 179.307 105.362 179.64C103.5 179.954 101.632 180.448 99.752 180.606V180.602C99.537 180.602 99.415 180.279 99.634 180.169C101.542 179.216 103.753 178.765 105.829 178.329L111.943 177.379ZM172.231 157.756C172.039 156.838 173.168 156.413 173.691 157.141L173.802 157.294C174.932 158.843 176.567 160.787 176.483 162.757C177.477 162.778 178.507 163.382 178.894 164.279C179.073 164.694 179.133 165.185 179.094 165.694C179.997 165.765 180.982 166.358 181.534 166.935C182.449 167.892 182.521 169.245 181.864 170.363C180.433 172.801 177.307 173.688 174.667 173.886L174.573 173.893C171.847 174.082 167.919 174.031 166.049 171.691C164.246 169.434 166.239 167.607 168.283 166.614C167.751 166.128 167.475 165.432 167.734 164.697C168.189 163.405 169.795 162.906 170.702 162.008C171.809 160.914 172.539 159.412 172.248 157.842L172.231 157.756ZM173.729 159.741C173.429 161.048 172.69 162.243 171.662 163.191C171.268 163.553 170.838 163.875 170.381 164.153L170.326 164.184C169.92 164.412 168.923 164.839 168.999 165.351C169.078 165.876 170.703 166.698 171.146 166.699C171.247 166.699 171.304 166.856 171.201 166.902C170.398 167.256 169.697 167.408 168.913 167.034C168.388 167.569 167.879 168.123 167.374 168.673C166.482 169.645 166.787 170.671 167.842 171.395C169.536 172.558 172.11 172.529 174.087 172.445C176.076 172.36 178.203 171.916 179.756 170.59L179.824 170.531C180.669 169.78 181.44 168.507 180.147 167.783C179.64 167.5 179.093 167.516 178.612 167.379C178.162 168.261 177.432 168.968 176.542 169.104C175.822 169.214 175.326 168.309 175.981 167.876L176.128 167.785C176.95 167.26 177.652 166.451 177.633 165.398C177.621 164.667 176.6 163.744 175.935 164.431L175.905 164.463C175.349 165.091 174.369 164.3 174.735 163.605L174.752 163.574L173.729 159.741ZM43.9858 123.393C43.9833 123.236 44.204 123.177 44.2812 123.313C45.5724 125.586 46.2474 128.372 46.9353 130.876C47.6558 133.498 48.2374 136.148 48.7598 138.817C49.8181 144.221 50.382 149.595 50.4202 155.103C50.4255 155.889 49.1448 156.099 49.0195 155.293C48.1877 149.935 47.3908 144.571 46.5527 139.215C46.131 136.521 45.6402 133.837 45.1706 131.151L43.9858 123.393ZM56.7694 127.352C56.6743 127.038 57.1302 126.933 57.2469 127.22C59.8383 133.584 60.7159 140.795 59.0521 147.509C58.7976 148.536 57.294 148.091 57.486 147.077L56.7694 127.352ZM90.196 121.697C90.182 121.463 90.487 121.426 90.602 121.587C91.829 123.318 92.339 125.636 94.493 126.53C95.569 126.977 96.779 126.899 97.729 127.653C98.365 128.158 98.852 128.954 98.375 129.718C98.221 129.965 97.791 130.089 97.582 129.821C97.277 129.43 97.116 128.962 96.702 128.669C96.118 128.256 95.331 128.23 94.662 128.036C93.796 127.785 93.033 127.345 92.408 126.693L90.196 121.697ZM110.709 92.83C110.836 92.766 110.957 92.807 111.038 92.916C111.154 93.072 111.14 93.224 110.998 93.331C111.187 93.718 111.41 94.686 111.442 94.827C111.572 95.399 111.709 95.967 111.853 96.534C112.143 97.679 112.398 98.833 112.688 99.978C112.996 101.192 113.363 102.393 113.771 103.577C113.798 103.654 113.827 103.732 113.857 103.811L113.904 103.931L113.915 103.913C113.998 103.782 114.171 103.874 114.151 104.012C114.131 104.139 114.106 104.264 114.084 104.391L114.127 104.504C114.394 105.223 114.577 105.981 114.087 106.616C113.904 106.853 113.702 106.993 113.451 107.035C113.047 108.365 112.542 109.669 112 110.922L111.842 111.288C111.045 113.116 110.196 114.921 108.927 116.477C107.543 118.176 105.638 119.337 104.432 121.199C103.871 122.065 103.48 122.975 103.164 123.953L103.044 124.325C102.819 125.017 102.56 125.687 101.911 126.093C101.704 126.222 101.394 126.181 101.227 126.005C99.897 124.597 101.289 121.968 102.092 120.605C103.207 118.71 104.82 117.497 106.436 116.067C108.178 114.526 109.289 112.464 110.364 110.433C111.022 109.188 111.658 107.917 112.327 106.667C111.628 106.049 111.404 104.821 111.167 103.968L111.146 103.891C110.754 102.525 110.443 101.123 110.247 99.714C110.058 98.36 109.979 97.026 110.029 95.664L110.043 95.317L110.709 92.83ZM113.308 99.275C113.154 99.063 113.41 98.823 113.621 98.867C114.91 99.134 116.169 99.914 117.326 100.545L117.449 100.612C118.372 101.11 119.301 101.72 119.786 102.687C120.313 103.738 120.269 104.949 120.197 106.092L120.191 106.199C120.102 107.569 120.088 108.993 119.798 110.338C119.65 111.027 119.027 111.221 118.494 111.058C117.859 113.061 116.078 114.537 114.776 116.118C113.117 118.134 113.429 120.855 113.603 123.282C113.673 124.265 112.451 124.544 111.822 124.02L110.371 122.815C110.13 122.614 109.888 122.412 109.648 122.21C109.442 122.036 109.238 121.862 109.035 121.685L108.733 121.417C108.599 121.297 108.007 120.636 107.834 120.609C107.415 120.542 106.419 121.647 106.078 121.993L106.035 122.037C105.394 122.666 104.814 123.343 104.274 124.061C104.175 124.193 103.981 124.083 104.052 123.931C104.536 122.894 105.098 121.903 105.766 120.976L105.901 120.791C106.345 120.192 106.941 119.135 107.726 118.958C108.683 118.742 109.639 119.703 110.336 120.236L110.38 120.269C110.712 120.518 111.039 120.771 111.366 121.026C111.332 119.219 111.56 117.393 112.493 115.835C113.151 114.737 114.136 113.923 114.979 112.979C115.918 111.928 116.408 110.637 117.258 109.542C117.367 109.401 117.518 109.325 117.681 109.301C117.714 108.421 117.844 107.533 117.944 106.662L117.973 106.402C118.074 105.456 118.313 104.301 117.85 103.415C117.413 102.578 116.41 101.988 115.667 101.42L115.06 100.949L113.308 99.275ZM71.495 89.274C71.108 89.498 70.745 89.778 70.416 90.126C69.381 91.225 68.64 92.593 67.92 93.908C67.532 94.617 67.158 95.333 66.767 96.04C66.597 96.347 66.422 96.651 66.245 96.955C66.163 97.095 65.92 97.373 65.8 97.544C65.934 97.732 66.072 97.917 66.213 98.099C66.267 98.169 69.981 102.217 71.276 103.801C73.259 106.227 75.031 108.79 76.546 111.534C78.029 114.22 79.159 117.065 80.533 119.803C81.221 121.174 81.989 122.535 82.968 123.722C83.006 123.768 83.046 123.812 83.085 123.858C83.458 122.848 84.416 121.766 84.886 121.145L84.93 121.087C85.997 119.648 87.124 118.253 88.274 116.882C89.326 115.629 90.404 114.404 91.508 113.199L91.923 112.748C92.692 111.917 93.669 110.673 94.795 110.079C94.675 109.864 94.535 109.651 94.375 109.441C93.32 108.062 91.828 107.061 90.356 106.158L89.402 105.577C85.805 103.384 82.263 101.089 79.14 98.239C77.488 96.732 75.858 95.152 74.469 93.394L73.978 92.772L71.495 89.274ZM77.498 88.188C75.813 88.33 73.994 88.296 72.437 88.845C73.821 90.154 75.137 91.567 76.488 92.898C76.608 91.998 76.854 91.109 77.063 90.231" fill="black"/>
<path fill-rule="evenodd" clip-rule="evenodd" d="M94.726 4.9493C106.722 4.9493 119.13 14.2513 123.527 20.1871C127.224 25.1777 129.215 47.7447 129.215 62.996C129.215 66.185 130.974 72.198 130.461 75.249C128.579 86.429 120.382 95.806 104.157 95.806C87.932 95.806 76.298 89.372 64.2388 72.098C58.3874 72.098 55.5515 67.609 55.5104 60.525C55.4692 53.441 61.1585 50.8632 61.1585 50.8632C61.1585 50.8632 59.1299 22.9059 64.2388 15.6272C69.348 8.34839 82.731 4.9493 94.726 4.9493Z" fill="white"/>
<path fill-rule="evenodd" clip-rule="evenodd" d="M89.679 0.996201C97.253 0.229001 104.675 0.873602 112.139 2.2074C112.709 2.3108 113.033 2.6851 113.153 3.135C116.669 3.2957 120.188 3.5537 123.699 3.7461C124.973 3.8158 125.696 5.0752 125.115 6.2125C124.999 6.4384 124.878 6.6582 124.756 6.8781L124.91 6.8273C125.966 6.4883 127.107 6.3212 128.136 6.8592C129.446 7.544 129.959 9.055 129.67 10.4456C129.596 10.8007 129.471 11.141 129.33 11.473C129.617 11.454 129.907 11.4603 130.194 11.4984C131.723 11.7013 132.86 12.8743 132.94 14.4362C133.059 16.7946 131.54 19.1873 129.75 20.8758C130.01 21.4107 130.109 22.0405 130.001 22.6788C129.786 23.9406 128.857 24.6961 127.78 25.189C128.229 26.6158 128.441 28.1076 128.316 29.632C128.274 30.141 127.829 30.5613 127.36 30.6645C129.11 35.4862 129.996 40.663 130.633 45.7073C131.088 49.2963 131.312 52.906 131.339 56.522C131.352 58.155 131.325 59.789 131.257 61.422L131.229 62.034C131.145 63.799 131.14 65.652 130.823 67.398C131.905 69.239 132.34 71.524 132.524 73.587C132.752 76.14 132.391 78.773 131.586 81.202C128.548 90.378 119.379 96.169 110.17 97.674C101.645 99.067 91.781 97.192 86.8 89.446C86.721 89.324 86.888 89.222 86.985 89.303C90.55 92.202 94.684 93.496 99.176 94.126C106.942 95.212 115.671 93.369 121.904 88.483C124.895 86.137 127.052 82.721 128.001 79.046C128.485 77.167 128.652 75.208 128.461 73.274C128.267 71.313 127.399 69.639 126.852 67.785C126.668 67.159 126.862 66.578 127.245 66.164C127.352 64.659 127.606 63.142 127.703 61.641C127.811 59.935 127.876 58.23 127.9 56.522C127.944 52.98 127.796 49.4313 127.498 45.9041C126.953 39.445 125.506 33.1428 124.657 26.7386C124.342 27.0208 123.891 27.1366 123.419 26.8901L123.37 26.8633L123.112 26.7156C123.097 26.7156 123.081 26.7177 123.066 26.7196C121.302 26.891 119.472 26.6459 117.782 26.1194C116.013 25.5701 114.372 24.7247 112.906 23.5982C112.627 25.0119 112.511 26.4406 112.509 27.882C112.507 28.7824 111.554 29.2497 110.797 28.865C107.445 27.1613 104.242 25.1981 101.202 22.9916C100.847 24.8113 100.492 26.6309 100.135 28.4527C99.997 29.1546 99.104 29.4378 98.531 29.1039C96.254 27.7785 94.287 26.0435 92.685 23.9805C92.366 24.5922 92.045 25.2037 91.722 25.8139L91.236 26.7281C90.757 27.6263 90.114 28.6199 89.064 28.9071C87.953 29.2114 87.025 28.4909 86.652 27.4847C86.538 27.1721 86.432 26.8507 86.335 26.5273C85.388 28.6896 84.319 30.8031 83.111 32.8194C81.298 35.8436 79.122 38.5383 76.952 41.3028C76.293 42.1421 75.165 41.3408 75.074 40.5252C75.021 40.0455 74.977 39.5636 74.939 39.0836C73.675 41.6359 72.355 44.1643 70.918 46.6193L71.124 47.426C71.717 49.8096 72.209 52.21 72.745 54.606C72.918 55.38 72.507 56.485 71.604 56.617C70.525 56.774 69.505 57.325 68.4 56.946C67.195 56.532 66.957 55.49 66.388 54.503C66.274 54.306 66.142 54.125 66 53.954L65.964 54.001C65.876 54.117 65.664 53.99 65.717 53.857L65.779 53.703C65.29 53.184 64.7056 52.752 64.1679 52.286C62.8902 52.071 61.4529 52.307 60.5726 52.826C58.5677 54.009 57.6467 56.448 57.6277 58.691C57.6045 61.316 58.4177 64.266 59.7909 66.511C60.3953 67.498 61.2235 68.389 62.3177 68.827C63.4038 69.262 64.5805 69.127 65.685 69.537C66.416 69.81 66.866 70.622 66.425 71.357C66.395 71.408 66.362 71.454 66.33 71.503L66.658 71.939C66.884 72.241 67.12 72.565 67.34 72.902C67.902 73.549 68.493 74.172 69.066 74.808C70.124 75.981 71.151 77.186 72.192 78.376C73.175 79.498 74.214 80.553 75.285 81.59C76.297 82.573 77.561 83.4 78.49 84.448C79.394 85.471 79.64 87.257 78.152 87.849C76.507 88.505 75.05 86.967 73.942 85.941L73.895 85.898C71.865 84.028 70.031 81.892 68.575 79.54C67.132 80.522 65.046 80.616 63.6091 79.634C62.8532 79.117 62.2733 78.249 61.9915 77.304C61.7257 77.364 61.4601 77.398 61.2011 77.394C61.0678 77.472 60.9341 77.547 60.7988 77.617C59.7275 78.175 58.4115 77.926 57.9214 76.74C57.4751 75.663 57.935 74.441 58.337 73.403L58.42 73.189C58.6481 72.598 58.8996 71.953 59.2122 71.346C58.3418 70.691 57.5979 69.877 56.9686 68.952C54.8538 65.834 53.7974 61.275 54.2643 57.556C54.5453 55.311 55.5993 52.986 57.3254 51.473L57.2622 51.308C56.7784 50.0804 56.3388 48.848 56.0538 47.5505C55.72 46.033 55.5571 44.4606 55.4094 42.9156C55.0967 39.6524 55.1812 36.3151 55.5974 33.0646C56.3791 26.946 58.3608 20.9394 61.8784 15.848C60.881 14.6536 60.0911 13.2482 60.5029 11.6315C60.6911 10.8895 61.1198 10.1859 61.7665 9.7609C62.1233 9.5265 62.5481 9.4906 62.9052 9.2961L63.0125 9.237C63.1694 9.1454 63.0494 9.1551 62.9559 8.7297C62.5862 7.0302 62.8925 5.3882 64.7622 4.8239C66.522 4.2935 68.187 5.4199 69.228 6.762C71.954 4.828 75.545 3.8158 78.704 2.9556C82.295 1.9811 85.98 1.3726 89.679 0.996201ZM60.2409 57.997C60.228 56.613 61.5399 55.759 62.831 55.986C63.6979 56.137 64.4211 56.654 65.1 57.189L65.431 57.451C66.258 58.101 67.208 58.801 67.7 59.72C68.423 61.077 66.896 62.903 65.47 61.952C64.4915 61.296 63.8645 60.245 63.2228 59.269L63.1563 59.168C62.8648 58.731 62.6092 58.266 62.2097 57.915L62.1234 57.839C61.9921 57.727 61.8511 57.625 61.6815 57.577C61.3544 57.483 60.7485 57.615 60.6042 58.004L60.5913 58.044C60.5385 58.241 60.243 58.198 60.2409 57.997Z" fill="#8D7A5D" fill-opacity="0.89"/>
<path fill-rule="evenodd" clip-rule="evenodd" d="M114.972 77.159C113.538 77.723 111.844 77.856 110.364 77.375C108.949 76.916 107.664 75.893 106.887 74.607C106.194 73.462 105.905 72.102 106.314 70.747C106.334 70.682 106.397 70.641 106.459 70.624C106.793 70.929 107 71.232 107.207 71.534C107.556 72.042 107.905 72.545 108.384 72.979C109.082 73.611 110.022 74.125 110.954 74.294C111.867 74.46 112.802 74.313 113.62 73.876C114.117 73.61 114.519 73.255 114.917 72.898C115.351 72.509 115.778 72.115 116.375 71.895C116.853 71.719 117.356 71.868 117.742 72.162C118.157 72.478 118.455 72.973 118.439 73.491C118.413 74.293 118.062 74.962 117.553 75.513C116.865 76.26 115.892 76.797 114.972 77.159ZM113.27 57.176C114.866 58.146 117.296 60.408 115.58 62.813C113.56 64.933 110.651 62.502 109.218 61.402C107.889 60.55 106.396 62.742 107.629 63.737C117.986 71.408 122.189 57.429 114.077 56.035C113.184 55.881 112.852 56.875 113.27 57.176ZM96.49 43.7339C98.664 43.6299 100.581 44.6068 102.653 45.0506C104.568 45.4611 106.454 45.2146 108.317 44.6926C111.339 43.8453 112.588 48.4739 109.607 49.3759C107.436 50.0328 105.15 50.0784 102.922 49.7399C100.944 49.4389 99.285 48.4751 97.398 47.914C95.779 47.4327 93.874 47.6327 92.164 47.8593L91.5 47.9487C90.513 48.0816 89.521 48.215 88.544 48.4079C87.697 48.5755 86.851 48.8822 85.986 48.9177C85.887 48.9219 85.804 48.7943 85.866 48.7091C86.871 47.3289 88.808 46.2398 90.349 45.5134L90.453 45.4644C92.355 44.5774 94.372 43.8349 96.49 43.7339ZM95.693 53.912V53.864C95.696 52.516 96.48 49.4391 98.42 49.4391C99.631 49.4391 100.367 51.533 100.494 53.692L100.499 53.78C100.555 55.122 100.187 58.056 98.42 58.056C96.634 58.056 95.711 55.277 95.693 53.912ZM124.247 53.912V53.864C124.244 52.516 123.46 49.4391 121.52 49.4391C120.339 49.4391 119.61 51.43 119.456 53.53L119.446 53.692C119.369 54.989 119.714 58.056 121.52 58.056C123.306 58.056 124.229 55.277 124.247 53.912ZM124.217 42.0924L124.356 42.0955C126.623 42.1741 128.954 43.5172 129.559 45.7734C129.59 45.8905 129.446 45.9693 129.36 45.889C127.497 44.1435 124.991 45.8114 123.124 46.6856L122.439 47.0024C120.033 48.122 117.297 49.4384 114.626 48.604C113.357 48.2077 112.551 46.9037 112.913 45.5865C113.235 44.4146 114.649 43.4297 115.874 43.8527L115.93 43.8729C116.925 44.2537 118.148 43.8679 119.176 43.4875L120.02 43.1704C121.378 42.6551 122.741 42.0785 124.217 42.0924Z" fill="black"/>
</svg>
